<svg xmlns="http://www.w3.org/2000/svg" width="93.226" height="28.773" viewBox="0 0 93.226 28.773">
  <g id="Group_188" data-name="Group 188" transform="translate(-301.955 -65.217)">
    <path id="Path_1479" data-name="Path 1479" d="M30.223,28.408H25.3a.388.388,0,0,1-.418-.279Q20.074,17.476,15.258,6.824c-.039-.086-.082-.179-.138-.291L9.524,18.9a.854.854,0,0,0,.307.023h6.612a.357.357,0,0,1,.382.247q.933,2.112,1.891,4.215a.493.493,0,0,1,.089.264.858.858,0,0,1-.286.016H7.721a1.551,1.551,0,0,1-.179,0c-.125-.016-.179.045-.232.154-.189.436-.388.868-.584,1.3-.465,1.033-.933,2.066-1.394,3.1a.268.268,0,0,1-.286.195H.207A.627.627,0,0,1,.071,28.4c-.025-.109.041-.179.077-.266Q1.961,24.116,3.779,20.1L12.4,1A.373.373,0,0,1,12.8.745q2.314.014,4.63,0a.39.39,0,0,1,.425.268q4.11,9.113,8.22,18.214L30.1,28.12c.036.079.068.159.125.289Z" transform="translate(301.89 65.068)"/>
    <path id="Path_1480" data-name="Path 1480" d="M39.2,25.324a2.1,2.1,0,0,1,.179-.179l2.906-2.9.129-.129a.088.088,0,0,1,.136,0l.138.12a9.228,9.228,0,0,0,4.421,2.119,7.412,7.412,0,0,0,3.325-.075,4.5,4.5,0,0,0,1.942-1,2.968,2.968,0,0,0,.917-3,2.81,2.81,0,0,0-1.1-1.564A7.159,7.159,0,0,0,50.1,17.641c-.742-.257-1.5-.457-2.255-.693-.99-.311-1.975-.643-2.938-1.029a15.337,15.337,0,0,1-3.527-1.982,8.3,8.3,0,0,1-1.991-2.069,6.111,6.111,0,0,1-1.027-3.406A8.89,8.89,0,0,1,38.912,5.1,7.565,7.565,0,0,1,43.736.588,12.1,12.1,0,0,1,48.329.022a14.063,14.063,0,0,1,2.931.4,15.968,15.968,0,0,1,4.289,1.808,11.572,11.572,0,0,1,1.4,1.092L53.6,6.715c-.075-.07-.147-.13-.213-.195a7.535,7.535,0,0,0-3.738-2.026,6.849,6.849,0,0,0-4.4.4,3.226,3.226,0,0,0-1.9,2.114,2.655,2.655,0,0,0,.631,2.68,5.171,5.171,0,0,0,1.3.979,10.069,10.069,0,0,0,2.18.826c.758.209,1.521.409,2.269.65A19.12,19.12,0,0,1,54.1,14.176a12.218,12.218,0,0,1,2,1.531,6.958,6.958,0,0,1,1.9,2.929,6.525,6.525,0,0,1,.239,2.312,8.72,8.72,0,0,1-.752,3.216,7.457,7.457,0,0,1-4.357,3.962,10.291,10.291,0,0,1-3.354.631,15.622,15.622,0,0,1-5.681-.788,17.1,17.1,0,0,1-4.587-2.394c-.07-.052-.138-.105-.206-.159-.029-.021-.054-.045-.1-.084Z" transform="translate(293.868 65.225)"/>
    <path id="Path_1481" data-name="Path 1481" d="M98.228,14.609V1.123c0-.375-.032-.322.314-.322h4.292c.1,0,.146.029.141.132v22.4c0,.34,0,.34.345.34h10.248c.309,0,.281-.029.281.277v4.185a.772.772,0,0,0,0,.129c.016.132-.052.17-.179.159H98.516c-.322,0-.288.02-.288-.3Z" transform="translate(281.33 65.056)"/>
    <path id="Path_1482" data-name="Path 1482" d="M79.709,12.142a3.383,3.383,0,0,1-.724.071h-7.46a.572.572,0,0,0-.079,0c-.127.014-.2-.027-.179-.179a1.063,1.063,0,0,0,0-.13V5.784c0-.3-.041-.281.275-.281h7.512A3.127,3.127,0,0,1,81.9,7.164a3.358,3.358,0,0,1-2.189,4.978Zm8.847,5.423A8.193,8.193,0,0,0,85.7,13.751c-.15-.111-.179-.1-.052-.277a1.934,1.934,0,0,0,.116-.179,8.07,8.07,0,0,0,1.251-5.556,7.839,7.839,0,0,0-2.059-4.365A7.884,7.884,0,0,0,78.919.753h-12.1c-.345,0-.3-.03-.3.309V28.267c0,.1.032.145.134.139h4.289c.373,0,.316.027.316-.32V17.2c0-.259-.029-.252.225-.252h9.5a2.818,2.818,0,0,1,.92.138,3.22,3.22,0,0,1,2.323,2.67,3.313,3.313,0,0,1-3.252,3.9H75.2c-.243,0-.207-.029-.3.2L73.8,26.6l-.715,1.764a.372.372,0,0,0,.232.039h7.544A8.134,8.134,0,0,0,88.556,17.56Z" transform="translate(287.971 65.066)"/>
    <g id="Ellipse_11" data-name="Ellipse 11" transform="translate(390.071 65.855)" fill="none" stroke="#000" stroke-width="0.3">
      <circle cx="2.555" cy="2.555" r="2.555" stroke="none"/>
      <circle cx="2.555" cy="2.555" r="2.405" fill="none"/>
    </g>
    <path id="Path_3437" data-name="Path 3437" d="M502.762,10.016a2.7,2.7,0,0,1-.721.032c-.045,0-.06-.032-.06-.081v-.63c0-.081.045-.1.09-.1h.3a1.863,1.863,0,0,1,.3,0,.37.37,0,0,1,.345.355.343.343,0,0,1-.255.42Zm.375.484c-.045-.1-.045-.161.06-.226a.62.62,0,0,0,.315-.5.754.754,0,0,0-.661-.936c-.421-.016-.826-.016-1.246,0a.114.114,0,0,0-.105.081V9.1c.015.71.03,1.421.03,2.131.015.42-.075.355.36.355.105,0,.12-.048.12-.145,0-.242-.015-.484-.015-.727,0-.307-.015-.258.225-.258h.27c.12-.016.165.048.21.161.06.178.135.371.2.549.165.436.165.436.616.387a.287.287,0,0,0-.045-.161c-.12-.291-.225-.581-.33-.872Z" transform="translate(-109.884 58.247)"/>
  </g>
</svg>
